<svg xmlns="http://www.w3.org/2000/svg" xmlns:xlink="http://www.w3.org/1999/xlink" width="105.088" height="105.088" viewBox="0 0 105.088 105.088">
  <defs>
    <filter id="Trazado_91" x="0" y="0" width="105.088" height="105.088" filterUnits="userSpaceOnUse">
      <feOffset dy="3" input="SourceAlpha"/>
      <feGaussianBlur stdDeviation="5" result="blur"/>
      <feFlood flood-opacity="0.161"/>
      <feComposite operator="in" in2="blur"/>
      <feComposite in="SourceGraphic"/>
    </filter>
  </defs>
  <g id="boton_flotante" data-name="boton flotante" transform="translate(187 -7800)">
    <g transform="matrix(1, 0, 0, 1, -187, 7800)" filter="url(#Trazado_91)">
      <path id="Trazado_91-2" data-name="Trazado 91" d="M37.544,0A37.544,37.544,0,1,1,0,37.544,37.544,37.544,0,0,1,37.544,0Z" transform="translate(15 12)" fill="#042946"/>
    </g>
    <g id="Grupo_8214" data-name="Grupo 8214" transform="translate(-167.828 7816.172)">
      <g id="Grupo_8213" data-name="Grupo 8213" transform="translate(0 0)">
        <path id="Trazado_58" data-name="Trazado 58" d="M2902.084,250.173c.619,1.116.187,2.239-1.148,2.981l-1.269.705.864,1.556-.734.408-2.855-5.137,2-1.113C2900.281,248.831,2901.463,249.058,2902.084,250.173Zm-.734.408c-.407-.733-1.132-.879-2.071-.356l-1.247.692,1.28,2.3,1.247-.693C2901.5,252.007,2901.757,251.315,2901.349,250.581Z" transform="translate(-2881.576 -245.531)" fill="#fff"/>
        <path id="Trazado_59" data-name="Trazado 59" d="M2911.01,250.249l.214.7-4.083,1.243-1.712-5.626,3.97-1.208.213.7-3.166.964.525,1.728,2.822-.859.207.683-2.82.859.552,1.816Z" transform="translate(-2883.585 -244.635)" fill="#fff"/>
        <path id="Trazado_60" data-name="Trazado 60" d="M2914.224,244.59l2.47-.169a2.946,2.946,0,1,1,.4,5.862l-2.47.168Zm2.77,4.968a2.214,2.214,0,1,0-.3-4.4l-1.582.108.3,4.4Z" transform="translate(-2885.667 -244.411)" fill="#fff"/>
        <path id="Trazado_61" data-name="Trazado 61" d="M2924.537,244.5l.834.088-.619,5.846-.836-.089Z" transform="translate(-2887.961 -244.431)" fill="#fff"/>
        <path id="Trazado_62" data-name="Trazado 62" d="M2931.19,251.812l-.746-2.075c-.115-.023-.239-.048-.361-.082l-1.4-.382-.472,1.724-.81-.221,1.549-5.667,2.21.6c1.473.4,2.16,1.391,1.824,2.621a1.854,1.854,0,0,1-1.736,1.448l.824,2.27Zm.985-3.7c.221-.809-.2-1.419-1.231-1.7l-1.376-.376-.7,2.55,1.376.376C2931.283,249.245,2931.955,248.923,2932.176,248.114Z" transform="translate(-2888.787 -244.576)" fill="#fff"/>
        <path id="Trazado_63" data-name="Trazado 63" d="M2939.323,252.307a2.976,2.976,0,0,1,4.253-.816,2.909,2.909,0,0,1,1.371,1.988l-.747.145a2.178,2.178,0,0,0-1-1.488,2.26,2.26,0,1,0-2.469,3.784,2.185,2.185,0,0,0,1.772.313l.168.742a2.918,2.918,0,0,1-2.384-.452A2.972,2.972,0,0,1,2939.323,252.307Z" transform="translate(-2891.489 -245.955)" fill="#fff"/>
        <path id="Trazado_64" data-name="Trazado 64" d="M2948.364,255.3l.62.566-3.954,4.345-.621-.565Z" transform="translate(-2892.813 -246.988)" fill="#fff"/>
        <path id="Trazado_65" data-name="Trazado 65" d="M2951.938,259.672l-1.288-1.552.562-.467,3.109,3.743-.563.466-1.288-1.551-3.962,3.291-.531-.64Z" transform="translate(-2893.657 -247.546)" fill="#fff"/>
        <path id="Trazado_66" data-name="Trazado 66" d="M2953.78,270.393l-1.5-2.738-1.6.14-.416-.759,6.433-.5.4.729-3.869,5.17-.423-.773Zm.448-.581,1.914-2.5-3.135.275Z" transform="translate(-2894.198 -249.65)" fill="#fff"/>
        <path id="Trazado_67" data-name="Trazado 67" d="M2958.044,277.39a.557.557,0,0,1,.7.408.575.575,0,0,1-1.112.291A.556.556,0,0,1,2958.044,277.39Z" transform="translate(-2895.937 -252.213)" fill="#fff"/>
        <path id="Trazado_68" data-name="Trazado 68" d="M2960.472,289.351c-1.277.021-2.065-.89-2.091-2.418l-.024-1.453-1.781.03-.014-.84,5.879-.1.038,2.293C2962.505,288.393,2961.747,289.329,2960.472,289.351Zm-.015-.84c.84-.014,1.309-.585,1.291-1.659l-.024-1.428-2.636.044.024,1.427C2959.13,287.97,2959.617,288.525,2960.457,288.511Z" transform="translate(-2895.689 -253.918)" fill="#fff"/>
        <path id="Trazado_69" data-name="Trazado 69" d="M2956.05,296.86l-.716-.142.828-4.183,5.764,1.141-.806,4.068-.716-.142.642-3.245-1.77-.35-.572,2.89-.7-.138.572-2.89-1.86-.369Z" transform="translate(-2895.399 -255.803)" fill="#fff"/>
        <path id="Trazado_70" data-name="Trazado 70" d="M2959.759,302.16l-1.02,2.257a2.948,2.948,0,1,1-5.357-2.422l1.02-2.257Zm-5.69.091a2.215,2.215,0,1,0,4.024,1.82l.656-1.446-4.026-1.82Z" transform="translate(-2894.854 -257.508)" fill="#fff"/>
        <path id="Trazado_71" data-name="Trazado 71" d="M2955.356,311.181l-.474.693-4.852-3.318.474-.693Z" transform="translate(-2894.143 -259.431)" fill="#fff"/>
        <path id="Trazado_72" data-name="Trazado 72" d="M2944.921,313.592l2.182.327c.074-.091.156-.188.242-.279l1-1.052-1.3-1.233.579-.608,4.255,4.051-1.58,1.659c-1.053,1.107-2.25,1.243-3.174.363a1.853,1.853,0,0,1-.452-2.216l-2.39-.351Zm2.79,2.621c.608.579,1.343.5,2.084-.276l.984-1.033-1.915-1.823-.984,1.033C2947.138,314.892,2947.1,315.634,2947.71,316.213Z" transform="translate(-2892.785 -260.114)" fill="#fff"/>
        <path id="Trazado_73" data-name="Trazado 73" d="M2941.026,320.817a2.974,2.974,0,0,1-1.285,4.135,2.9,2.9,0,0,1-2.4.272l.225-.727a2.175,2.175,0,0,0,1.785-.185,2.259,2.259,0,1,0-2.174-3.96,2.189,2.189,0,0,0-1.111,1.414l-.733-.2a2.914,2.914,0,0,1,1.521-1.888A2.971,2.971,0,0,1,2941.026,320.817Z" transform="translate(-2890.665 -262.128)" fill="#fff"/>
        <path id="Trazado_74" data-name="Trazado 74" d="M2934.863,327.317l-.792.28-1.966-5.544.792-.281Z" transform="translate(-2889.9 -262.724)" fill="#fff"/>
        <path id="Trazado_75" data-name="Trazado 75" d="M2928.751,328.24l1.977-.4.144.716-4.768.958-.144-.716,1.977-.4-1.013-5.048.815-.163Z" transform="translate(-2888.445 -263.06)" fill="#fff"/>
        <path id="Trazado_76" data-name="Trazado 76" d="M2918.415,325.489l3.124-.052.623-1.481.865-.014-2.564,5.922-.831.014-2.768-5.834.882-.014Zm.306.667,1.316,2.859,1.219-2.9Z" transform="translate(-2886.292 -263.238)" fill="#fff"/>
        <path id="Trazado_77" data-name="Trazado 77" d="M2911.854,325.911a.555.555,0,0,1-.688.422.575.575,0,0,1,.268-1.118A.557.557,0,0,1,2911.854,325.911Z" transform="translate(-2884.843 -263.535)" fill="#fff"/>
        <path id="Trazado_78" data-name="Trazado 78" d="M2898.613,322.357c.59-1.133,1.767-1.392,3.123-.686l1.29.671.822-1.58.745.388-2.714,5.217-2.035-1.059C2898.487,324.6,2898.024,323.49,2898.613,322.357Zm.746.388c-.387.745-.11,1.43.844,1.927l1.268.659,1.217-2.34-1.267-.659C2900.466,321.834,2899.747,322,2899.358,322.745Z" transform="translate(-2881.912 -262.485)" fill="#fff"/>
        <path id="Trazado_79" data-name="Trazado 79" d="M2893.795,314.445l.465-.565,3.3,2.71-3.734,4.541-3.205-2.635.465-.565,2.555,2.1,1.147-1.395-2.277-1.872.454-.552,2.277,1.872,1.205-1.466Z" transform="translate(-2880.078 -260.856)" fill="#fff"/>
        <path id="Trazado_80" data-name="Trazado 80" d="M2887.32,315.173l-1.508-1.962a2.944,2.944,0,1,1,4.654-3.579l1.509,1.962Zm2.6-5.057a2.213,2.213,0,1,0-3.5,2.69l.967,1.257,3.5-2.69Z" transform="translate(-2878.76 -259.528)" fill="#fff"/>
        <path id="Trazado_81" data-name="Trazado 81" d="M2881.971,307.589l-.389-.744,5.209-2.715.388.744Z" transform="translate(-2877.94 -258.548)" fill="#fff"/>
        <path id="Trazado_82" data-name="Trazado 82" d="M2884.057,296.807l-1.319,1.768c.044.109.092.226.131.346l.454,1.38,1.7-.558.262.8-5.584,1.835-.716-2.178c-.477-1.452-.031-2.571,1.182-2.969a1.856,1.856,0,0,1,2.167.65l1.439-1.94Zm-3.63,1.219c-.8.262-1.077.946-.741,1.967l.445,1.356,2.513-.826-.446-1.356C2881.863,298.147,2881.226,297.765,2880.427,298.026Z" transform="translate(-2877.281 -256.609)" fill="#fff"/>
        <path id="Trazado_83" data-name="Trazado 83" d="M2879.869,290.143a2.974,2.974,0,0,1-3.058-3.065,2.9,2.9,0,0,1,.878-2.249l.538.537a2.179,2.179,0,0,0-.669,1.665,2.26,2.26,0,1,0,4.518-.075,2.187,2.187,0,0,0-.733-1.643l.52-.555a2.919,2.919,0,0,1,.961,2.227A2.971,2.971,0,0,1,2879.869,290.143Z" transform="translate(-2876.811 -253.962)" fill="#fff"/>
        <path id="Trazado_84" data-name="Trazado 84" d="M2877.324,281.688l.126-.831,5.812.88-.126.83Z" transform="translate(-2876.932 -253.038)" fill="#fff"/>
        <path id="Trazado_85" data-name="Trazado 85" d="M2879.125,275.289l-.581,1.929-.7-.211,1.4-4.653.7.211-.582,1.929,4.927,1.485-.24.8Z" transform="translate(-2877.056 -251.026)" fill="#fff"/>
        <path id="Trazado_86" data-name="Trazado 86" d="M2886.5,268.209l-1.455,2.765,1,1.256-.4.766-3.96-5.095.388-.735,6.445.376-.41.78Zm-.731-.053-3.139-.221,1.957,2.465Z" transform="translate(-2877.963 -249.797)" fill="#fff"/>
        <path id="Trazado_87" data-name="Trazado 87" d="M2890.933,262.276a.556.556,0,0,1-.045-.806.575.575,0,0,1,.858.766A.558.558,0,0,1,2890.933,262.276Z" transform="translate(-2880.107 -248.404)" fill="#fff"/>
      </g>
    </g>
    <path id="Icon_awesome-phone-alt" data-name="Icon awesome-phone-alt" d="M21.865,15.9l-4.923-2.11a1.055,1.055,0,0,0-1.231.3l-2.18,2.664A16.294,16.294,0,0,1,5.741,8.973L8.4,6.792a1.052,1.052,0,0,0,.3-1.231L6.6.638A1.062,1.062,0,0,0,5.389.027L.818,1.082A1.055,1.055,0,0,0,0,2.11a20.4,20.4,0,0,0,20.4,20.4,1.055,1.055,0,0,0,1.029-.818l1.055-4.572a1.068,1.068,0,0,0-.616-1.213Z" transform="translate(-145.709 7838.238)" fill="#fff"/>
  </g>
</svg>
