<?xml version="1.0" encoding="UTF-8"?>
<svg xmlns="http://www.w3.org/2000/svg" width="202.576" height="229.661" viewBox="0 0 202.576 229.661">
  <g id="donacion-tratamiento-3" transform="translate(-39.5 -10.171)" opacity="0.35">
    <g id="Grupo_8383" data-name="Grupo 8383" transform="translate(99.193 10.171)">
      <path id="Trazado_124" data-name="Trazado 124" d="M194.794,10.325a27.329,27.329,0,0,1,23.681,8.91,116.409,116.409,0,0,0,9.613,12.427,12.059,12.059,0,0,0,2.579.7q9-2.242,13.6,5.627a93.776,93.776,0,0,0,5.627,11.723,3.9,3.9,0,0,0,2.345.938,7.512,7.512,0,0,0,3.986-2.11q6.4-7.635,13.13-15.006A54.326,54.326,0,0,1,307.8,19.47q2.039,2.22-.469,3.751A54.964,54.964,0,0,0,273.1,35.882q-7.573,8.574-15.475,16.881-6.342,4.754-11.489-1.172-2.994-5.754-5.627-11.723a11.985,11.985,0,0,0-2.579-3.048,63.26,63.26,0,0,0-10.316-.938,7.218,7.218,0,0,1-2.814-1.407,97.711,97.711,0,0,1-8.675-11.489q-8.781-10.353-22.274-8.206-23.015,3.549-23.446,26.729a243.677,243.677,0,0,1,1.172,37.28,23.694,23.694,0,0,1,6.1-5.158q2.943,1.295,5.862,2.814a22.66,22.66,0,0,0,.234-6.1l1.172-1.172a29.49,29.49,0,0,0,6.1-1.876q-2.565-2.226.469-4.22a10.76,10.76,0,0,1-7.268-3.517,39.278,39.278,0,0,1-5.393-17.116A13.277,13.277,0,0,1,182.6,32.131a24.845,24.845,0,0,1,17.819-6.1,15.2,15.2,0,0,1,12.427,9.613q1.174,3.759,2.345,7.5a6.458,6.458,0,0,0,6.331,2.814q4.233-.353,8.441-.938a9.359,9.359,0,0,1,4.22,1.172q1.99,4.56,3.986,9.144,5.888,9.487,16.178,4.924a18.86,18.86,0,0,1,7.5-2.814l.7.7a68.893,68.893,0,0,0,.469,15.475A44.9,44.9,0,0,1,234.183,81.6a12.7,12.7,0,0,1,1.407,5.158A83.71,83.71,0,0,0,258.1,84.181a19.168,19.168,0,0,0,6.1-3.282,3.047,3.047,0,0,1,2.345,0,133.53,133.53,0,0,0,11.958,24.15l5.158,6.1q-.932,7.464-1.876,15.006a98.829,98.829,0,0,0,.469,26.729,136.433,136.433,0,0,1,4.689,21.571q1.846,22.258,3.283,44.548a78.325,78.325,0,0,0,3.048,15.475h2.345q-1.878-42.006-5.158-83.938.117-1.641.234-3.282l.7-.7a35.9,35.9,0,0,1,5.158.938,6.932,6.932,0,0,0,3.517-4.924,144,144,0,0,0,3.283-37.514,49.186,49.186,0,0,0-2.814-8.91,223.247,223.247,0,0,1-10.785-21.1,71.223,71.223,0,0,1-3.283-13.13Q282.6,50.767,270.76,50.419q-2.287-3.1,1.407-4.22A100.419,100.419,0,0,1,307.8,43.385a2.454,2.454,0,0,1,.469,3.282,181.781,181.781,0,0,0-28.136,1.876,17.006,17.006,0,0,1,9.613,10.082q1.651,7.322,3.751,14.537a223.24,223.24,0,0,0,10.785,21.1,40.045,40.045,0,0,1,3.283,10.785,158.114,158.114,0,0,1-3.283,37.514q-1.051,8.672-9.613,9.379,3.262,41.46,5.158,83a84.821,84.821,0,0,1,8.91.234q1.876,1.641,0,3.282a160.527,160.527,0,0,1-17.35,0,24.339,24.339,0,0,1-3.986-10.551q-.9-5.131-1.407-10.316-1.144-20.417-2.814-40.8-2.667-14.332-5.627-28.6a140.78,140.78,0,0,1,2.11-35.169,78.261,78.261,0,0,1-15.006-26.26l-.7-.469a38.835,38.835,0,0,1-12.427,3.517,153.846,153.846,0,0,1-16.881,1.407,15.6,15.6,0,0,1-7.972,5.158q-11.918,3.426-23.915,6.565-23.5,4.391-31.653-18.054-1.688,2.945-4.22.938.426-11.013,1.172-22.04a199.443,199.443,0,0,1-1.172-28.6q2.446-16.51,18.054-22.274A76.476,76.476,0,0,1,194.794,10.325ZM196.2,30.02a12.334,12.334,0,0,1,11.489,4.689,50.909,50.909,0,0,1,3.751,10.316,11.249,11.249,0,0,0,9.847,5.158q4.106-.443,8.206-.938l1.876.469a26.226,26.226,0,0,0,9.379,14.3,19.567,19.567,0,0,0,17.585-1.172q-.072,4.4,0,8.91a35.743,35.743,0,0,1-27.9,4.455,48.627,48.627,0,0,0-17.35-14.537,71.926,71.926,0,0,0-10.316-2.11,2.11,2.11,0,0,0-2.11-1.407,18.113,18.113,0,0,1-11.958-.234A26.182,26.182,0,0,1,183.3,38.93a14.886,14.886,0,0,1,8.206-7.268Q193.959,30.886,196.2,30.02Zm1.407,34.232a25.393,25.393,0,0,1,20.164,4.924,93.321,93.321,0,0,1,12.9,14.3,6.177,6.177,0,0,1-.7,6.8,21.445,21.445,0,0,1-6.565,2.814,211.293,211.293,0,0,1-28.6,6.8Q178.6,98.005,174.63,82.071a9.449,9.449,0,0,1,3.282-3.751l7.034,3.517q3.572.884,3.282-2.814a43.241,43.241,0,0,1-.469-6.331,62.285,62.285,0,0,0,8.91-2.345,2.908,2.908,0,0,0,.938-1.641,6.428,6.428,0,0,0-1.876-3.048Q196.717,64.941,197.607,64.252Z" transform="translate(-166.798 -10.171)" fill="#042946" fill-rule="evenodd" opacity="0.873"></path>
    </g>
    <g id="Grupo_8384" data-name="Grupo 8384" transform="translate(134.711 71.257)">
      <path id="Trazado_125" data-name="Trazado 125" d="M242.991,140.467a28.573,28.573,0,0,1,5.158.234,2.667,2.667,0,0,1,.7,3.048,12.841,12.841,0,0,1-5.862.234A3.662,3.662,0,0,1,242.991,140.467Z" transform="translate(-242.541 -140.438)" fill="#042946" fill-rule="evenodd" opacity="0.863"></path>
    </g>
    <g id="Grupo_8385" data-name="Grupo 8385" transform="translate(126.28 77.353)">
      <path id="Trazado_126" data-name="Trazado 126" d="M225.47,153.467a23.663,23.663,0,0,1,4.689.234q1.876,1.641,0,3.282a11.835,11.835,0,0,1-4.689,0A2.155,2.155,0,0,1,225.47,153.467Z" transform="translate(-224.561 -153.438)" fill="#042946" fill-rule="evenodd" opacity="0.85"></path>
    </g>
    <g id="Grupo_8386" data-name="Grupo 8386" transform="translate(145.106 81.573)">
      <path id="Trazado_127" data-name="Trazado 127" d="M265.549,162.467a28.573,28.573,0,0,1,5.158.234q1.876,1.641,0,3.282a14.3,14.3,0,0,1-5.158,0A2.26,2.26,0,0,1,265.549,162.467Z" transform="translate(-264.709 -162.438)" fill="#042946" fill-rule="evenodd" opacity="0.846"></path>
    </g>
    <g id="Grupo_8387" data-name="Grupo 8387" transform="translate(39.5 86.731)">
      <path id="Trazado_128" data-name="Trazado 128" d="M40.907,173.467q22.275-.117,44.548.234l.7.7q.469,11.723,0,23.446a6.261,6.261,0,0,1-4.455.938q.117,55.569-.234,111.136-4.561,20.493-25.088,15.709a18.6,18.6,0,0,1-11.489-14.3q-.352-56.271-.234-112.542a15.222,15.222,0,0,1-3.751-.234,2.155,2.155,0,0,1-1.172-1.172q-.469-11.254,0-22.508A5.3,5.3,0,0,1,40.907,173.467Zm2.814,4.22H82.641v16.881H43.72Zm5.158,21.1h28.6v22.977h-28.6Zm0,27.2h28.6q.117,42.438-.234,84.876-4.308,14.291-18.992,11.02A14.782,14.782,0,0,1,49.113,311.8Q48.761,268.894,48.879,225.987Z" transform="translate(-39.5 -173.437)" fill="#042946" fill-rule="evenodd" opacity="0.859"></path>
    </g>
    <g id="Grupo_8388" data-name="Grupo 8388" transform="translate(118.492 86.732)">
      <path id="Trazado_129" data-name="Trazado 129" d="M209.147,173.467a23.663,23.663,0,0,1,4.689.234q2.248,4.045-2.579,3.986Q205.965,177.423,209.147,173.467Z" transform="translate(-207.952 -173.438)" fill="#042946" fill-rule="evenodd" opacity="0.768"></path>
    </g>
    <g id="Grupo_8389" data-name="Grupo 8389" transform="translate(132.839 86.732)">
      <path id="Trazado_130" data-name="Trazado 130" d="M239.464,173.467a23.663,23.663,0,0,1,4.689.234,2.344,2.344,0,0,1,0,3.751,11.835,11.835,0,0,1-4.689,0A2.628,2.628,0,0,1,239.464,173.467Z" transform="translate(-238.549 -173.438)" fill="#042946" fill-rule="evenodd" opacity="0.788"></path>
    </g>
    <g id="Grupo_8390" data-name="Grupo 8390" transform="translate(98.254 133.582)">
      <path id="Trazado_131" data-name="Trazado 131" d="M210.142,273.419q31.544-1.4,48.534,24.853,15,29.17-3.282,56.271Q234.086,379.7,201.7,372.6q-31.443-10.239-36.811-42.907-1.948-40.094,35.4-54.161Q205.268,274.232,210.142,273.419Zm-.938,4.22q34.446-1.953,49,29.073,10.293,31.162-13.833,53.223-29.308,21.1-58.616,0-24.611-22.6-13.364-54.161Q183.41,281.974,209.2,277.64Z" transform="translate(-164.794 -273.348)" fill="#042946" fill-rule="evenodd" opacity="0.861"></path>
    </g>
    <g id="Grupo_8391" data-name="Grupo 8391" transform="translate(107.539 143.032)">
      <path id="Trazado_132" data-name="Trazado 132" d="M223.94,293.5q32.321,1.033,41.5,31.887,5.151,32.489-24.15,47.127-27.749,9.5-47.6-11.958-18.657-26.85.938-52.989A43.231,43.231,0,0,1,223.94,293.5Zm-2.345,4.22q-18.612,3.011-28.37,19.226-11.1,23.429,5.627,43.141,20.977,19.134,46.189,5.862,22.291-15.75,15.709-42.438Q250.258,296.977,221.6,297.72Z" transform="translate(-184.595 -293.5)" fill="#042946" fill-rule="evenodd" opacity="0.863"></path>
    </g>
    <g id="Grupo_8392" data-name="Grupo 8392" transform="translate(60.653 153.334)">
      <path id="Trazado_133" data-name="Trazado 133" d="M89.247,315.484q10.066-.373,8.206,9.379-2.8,5.3-8.675,3.517-6.331-3.522-3.048-10.082A9.886,9.886,0,0,1,89.247,315.484Zm1.407,3.751a14.171,14.171,0,0,0-1.641,1.407q-.678,5.4,4.22,3.282Q95.07,319.861,90.654,319.236Z" transform="translate(-84.609 -315.471)" fill="#042946" fill-rule="evenodd" opacity="0.87"></path>
    </g>
    <g id="Grupo_8393" data-name="Grupo 8393" transform="translate(141.161 155.13)">
      <path id="Trazado_134" data-name="Trazado 134" d="M264.832,319.394q15.909-1.267,14.771,14.537-3.7,10.485-14.771,8.675-12.387-5.5-6.8-18.054A15.722,15.722,0,0,1,264.832,319.394Zm1.876,3.751a12.251,12.251,0,0,0-4.924,3.282q-3.72,6.17,1.641,11.02,10.258,4.367,12.661-6.565Q274.687,323.037,266.708,323.145Z" transform="translate(-256.296 -319.3)" fill="#042946" fill-rule="evenodd" opacity="0.874"></path>
    </g>
    <g id="Grupo_8394" data-name="Grupo 8394" transform="translate(148.29 162.258)">
      <path id="Trazado_135" data-name="Trazado 135" d="M272.906,334.5q5.2.081,1.876,3.986-4.162,1.468-3.048-3.048A4.5,4.5,0,0,0,272.906,334.5Z" transform="translate(-271.498 -334.5)" fill="#042946" fill-rule="evenodd" opacity="0.789"></path>
    </g>
    <g id="Grupo_8395" data-name="Grupo 8395" transform="translate(52.897 176.325)">
      <path id="Trazado_136" data-name="Trazado 136" d="M74.368,364.5q11.546-.063,9.613,11.254-3.678,7.4-11.489,4.455-6.887-4.891-3.048-12.427A12.25,12.25,0,0,1,74.368,364.5Zm.469,4.22a5.394,5.394,0,0,0-2.814,3.986q1.786,6.218,7.268,3.048Q82.392,368.887,74.837,368.72Z" transform="translate(-68.07 -364.499)" fill="#042946" fill-rule="evenodd" opacity="0.863"></path>
    </g>
    <g id="Grupo_8396" data-name="Grupo 8396" transform="translate(121.338 178.2)">
      <path id="Trazado_137" data-name="Trazado 137" d="M223.625,368.5q14.761-.129,13.833,14.537-3.76,11.555-15.709,8.675-11.524-6.2-5.862-18.054A14.193,14.193,0,0,1,223.625,368.5Zm0,4.22q-8.7,4.654-3.517,13.13,6.522,5.007,12.192-.938Q236.358,372.9,223.625,372.719Z" transform="translate(-214.022 -368.498)" fill="#042946" fill-rule="evenodd" opacity="0.859"></path>
    </g>
    <g id="Grupo_8397" data-name="Grupo 8397" transform="translate(152.887 184.058)">
      <path id="Trazado_138" data-name="Trazado 138" d="M289.835,381.23q10.834-1.678,14.771,8.441,1.524,16.3-14.771,14.771-10.205-3.873-8.206-14.771A11.79,11.79,0,0,1,289.835,381.23Zm2.345,3.751q-6.2,1.512-7.034,7.972.938,7.034,7.972,7.972,7.03-.934,7.972-7.972Q299.957,385.256,292.18,384.981Z" transform="translate(-281.302 -380.991)" fill="#042946" fill-rule="evenodd" opacity="0.873"></path>
    </g>
    <g id="Grupo_8398" data-name="Grupo 8398" transform="translate(129.065 185.69)">
      <path id="Trazado_139" data-name="Trazado 139" d="M232.376,384.485q3.57-.225,2.579,3.283-2.7,3-4.455-.469A4.47,4.47,0,0,1,232.376,384.485Z" transform="translate(-230.5 -384.471)" fill="#042946" fill-rule="evenodd" opacity="0.779"></path>
    </g>
    <g id="Grupo_8399" data-name="Grupo 8399" transform="translate(160.483 190.862)">
      <path id="Trazado_140" data-name="Trazado 140" d="M299.845,395.5q3.174.26,2.11,3.282-2.6,3.659-4.455-.234A4.651,4.651,0,0,1,299.845,395.5Z" transform="translate(-297.5 -395.5)" fill="#042946" fill-rule="evenodd" opacity="0.786"></path>
    </g>
    <g id="Grupo_8400" data-name="Grupo 8400" transform="translate(59.232 207.744)">
      <path id="Trazado_141" data-name="Trazado 141" d="M87.169,431.5q8.8.707,7.268,9.379-3.193,5.912-9.613,3.517-6.247-5.59-.469-11.723Q85.841,432.078,87.169,431.5Zm0,4.22a7.686,7.686,0,0,0-1.876,2.579q.763,3.533,4.22,2.345Q92.652,436.249,87.169,435.72Z" transform="translate(-81.58 -431.5)" fill="#042946" fill-rule="evenodd" opacity="0.866"></path>
    </g>
  </g>
</svg>
