<?xml version="1.0" encoding="UTF-8"?>
<svg xmlns="http://www.w3.org/2000/svg" width="220.715" height="229.661" viewBox="0 0 220.715 229.661">
  <g id="ecografia-1" transform="translate(-9.444 0.5)" opacity="0.35">
    <g id="Grupo_8401" data-name="Grupo 8401" transform="translate(9.444 -0.5)">
      <path id="Trazado_142" data-name="Trazado 142" d="M132.374-.5h10.765a13.113,13.113,0,0,1,8.971,8.3l29.6.449q8.156,2.212,9.42,10.541a36.918,36.918,0,0,1,28.708,6.5,29.3,29.3,0,0,1,10.093,19.064q.449,79.619,0,159.238-3.536,20.466-23.549,25.568H195.172q-17.957-4.219-23.1-21.979a18,18,0,0,1,0-9.42,13.241,13.241,0,0,1,2.019-1.121l11.662-.449a4.151,4.151,0,0,0,2.467-2.019q.449-64.368,0-128.736a4.957,4.957,0,0,0-2.467-2.467q-83.245-.669-166.415.449a3.443,3.443,0,0,0-1.57,2.467q-.336,53.826-.224,107.654,77.152-.112,154.3.224a4.363,4.363,0,0,1,1.57,6.056,3.444,3.444,0,0,1-2.467,1.57q-76.7.336-153.406.224-.112,6.06.224,12.111a4.957,4.957,0,0,0,2.467,2.467l139.5.449a3.615,3.615,0,0,1,2.243,3.813,3.293,3.293,0,0,1-2.691,3.813q-39.024.336-78.049.224L76.753,217.5a4.25,4.25,0,0,0,1.794,3.364l47.547.449q6.663,2.607,1.794,7.85H76.753q-9.343-4.1-7.85-14.354,1.778-5.11,3.813-10.093l-53.827-.449a11.666,11.666,0,0,1-8.747-7.85Q9.027,130.508,9.693,64.541A11.583,11.583,0,0,1,19.337,54.9q83.656-.449,167.312,0a12.07,12.07,0,0,1,9.644,8.747q.449,65.938,0,131.876a11,11,0,0,1-8.747,8.747,65.064,65.064,0,0,1-7.625.224q3.036,13.122,16.148,16.372,18.031,2.574,24.895-14.13.534-2,.9-4.037.112-39.249.224-78.5.1-40.615-.673-81.189-3.6-13.021-16.821-15.924L186.2,26.638a13.217,13.217,0,0,1-2.019-1.121,17.582,17.582,0,0,1-1.346-6.728,4.957,4.957,0,0,0-2.467-2.467l-32.745-.449a3.443,3.443,0,0,1-2.467-1.57A18.246,18.246,0,0,0,143.139,8.7q-13.406-4.427-20.409,7.85-4.471,16.517,11.887,21.306a22.09,22.09,0,0,0,6.28,0q4.265-1.754,3.813-6.5a3.369,3.369,0,0,1,2.019-2.019q12.56-.449,25.119,0a4.53,4.53,0,0,1,1.57,5.607,3.65,3.65,0,0,1-2.467,2.019L152.11,37.4a13.022,13.022,0,0,1-9.868,8.523q-22.4,2.439-28.483-19.064Q111.83,5.379,132.374-.5Z" transform="translate(-9.444 0.5)" fill="#042946" fill-rule="evenodd" opacity="0.944"></path>
    </g>
    <g id="Grupo_8402" data-name="Grupo 8402" transform="translate(44.083 82.465)">
      <path id="Trazado_143" data-name="Trazado 143" d="M122.477,184.477a18.412,18.412,0,0,1,5.831.673,30.73,30.73,0,0,0,19.736,5.831,27.2,27.2,0,0,0,13.008-4.934q6.841-1.233,5.607,5.607a25.943,25.943,0,0,1-12.335,6.5,36.745,36.745,0,0,1-29.156-5.383,1.121,1.121,0,0,0-1.346,0Q109.376,206.549,95.34,220.81a7.267,7.267,0,0,0-.673,1.57q11.7,23.127,36.782,30.053,34.424,7.289,58.088-18.615a49.75,49.75,0,0,0,6.953-11.438,4.315,4.315,0,0,0-.673-2.018L176.08,200.625q-.73-8.46,6.953-4.71,10.224,10,19.961,20.409a12.935,12.935,0,0,1-.449,13.008q-22.327,36-64.816,32.52-34.395-5.035-50.463-35.66a12.029,12.029,0,0,1,1.346-10.317l29.38-29.38A29.2,29.2,0,0,1,122.477,184.477Z" transform="translate(-86.668 -184.459)" fill="#042946" fill-rule="evenodd" opacity="0.932"></path>
    </g>
  </g>
</svg>
