<?xml version="1.0" encoding="UTF-8"?>
<svg xmlns="http://www.w3.org/2000/svg" width="76" height="76" viewBox="0 0 76 76">
  <g id="Icono_Whasapp" data-name="Icono Whasapp" transform="translate(-1262 -672)">
    <circle id="Elipse_18" data-name="Elipse 18" cx="38" cy="38" r="38" transform="translate(1262 672)" fill="#fca01f"></circle>
    <path id="Icon_akar-whatsapp-fill" data-name="Icon akar-whatsapp-fill" d="M23.822,19.673c-.408-.2-2.406-1.186-2.778-1.323s-.643-.2-.915.205-1.049,1.321-1.286,1.592-.475.305-.881.1a11.16,11.16,0,0,1-3.269-2.018,12.236,12.236,0,0,1-2.261-2.816c-.237-.406-.026-.626.178-.829.183-.182.406-.475.61-.711a2.756,2.756,0,0,0,.406-.68.741.741,0,0,0-.034-.711c-.1-.2-.914-2.205-1.253-3.019-.33-.792-.665-.684-.914-.7s-.509-.014-.78-.014a1.489,1.489,0,0,0-1.083.509,4.553,4.553,0,0,0-1.423,3.391,7.91,7.91,0,0,0,1.659,4.2c.2.271,2.866,4.377,6.943,6.138a23.224,23.224,0,0,0,2.317.855,5.55,5.55,0,0,0,2.561.161,4.19,4.19,0,0,0,2.744-1.933,3.408,3.408,0,0,0,.237-1.933c-.1-.17-.372-.271-.78-.475ZM16.4,29.8H16.4a13.5,13.5,0,0,1-6.885-1.886l-.49-.291L3.905,28.965l1.367-4.99-.321-.512A13.521,13.521,0,1,1,16.4,29.8ZM27.912,4.771A16.271,16.271,0,0,0,2.308,24.4L0,32.829l8.623-2.262A16.252,16.252,0,0,0,16.4,32.547H16.4A16.275,16.275,0,0,0,27.912,4.771" transform="translate(1284 694)" fill="#fff"></path>
    <g id="Grupo_9721" data-name="Grupo 9721" transform="translate(1032.983 496.688)">
      <g id="Grupo_9720" data-name="Grupo 9720" transform="translate(232.017 178.312)">
        <path id="Trazado_575" data-name="Trazado 575" d="M335.451,188.51c.381-1.124,1.611-.824,1.893-1.63l.892.3c-.343,1.012-1.583.81-1.819,1.506-.117.344.129.726.671.909a1.417,1.417,0,0,0,1.329-.153l.524.672a2.346,2.346,0,0,1-2.188.214C335.727,189.982,335.188,189.282,335.451,188.51Zm2.154-2.8a.595.595,0,1,1,.381.725A.569.569,0,0,1,337.605,185.715Z" transform="translate(-292.772 -182.432)" fill="#fff"></path>
        <path id="Trazado_576" data-name="Trazado 576" d="M353.619,188.8l-2.58,4.509-.689-.395-.739-4.476-1.747,3.054-.831-.476,2.58-4.509.689.395.739,4.476,1.747-3.053Z" transform="translate(-299.618 -183.131)" fill="#fff"></path>
        <path id="Trazado_577" data-name="Trazado 577" d="M363.89,202.227l-.535.607-2.922-2.576,3.434-3.9,2.844,2.507-.535.607-2.121-1.87-.893,1.013,1.882,1.658-.525.6-1.882-1.658-.947,1.074Z" transform="translate(-307.494 -188.921)" fill="#fff"></path>
        <path id="Trazado_578" data-name="Trazado 578" d="M373.067,209.512a2.809,2.809,0,0,1,4.38,2.73l-.844-.136a1.824,1.824,0,0,0-.365-1.47,1.825,1.825,0,1,0-2.891,2.228,1.8,1.8,0,0,0,1.334.723l-.089.856a2.809,2.809,0,0,1-1.525-4.931Z" transform="translate(-314.303 -196.314)" fill="#fff"></path>
        <path id="Trazado_579" data-name="Trazado 579" d="M380.943,226.337l-.724.362-1.744-3.484,4.646-2.325,1.7,3.391-.723.362-1.266-2.529-1.208.6,1.123,2.243-.71.355-1.123-2.243-1.281.641Z" transform="translate(-318.099 -203.338)" fill="#fff"></path>
        <path id="Trazado_580" data-name="Trazado 580" d="M384.74,236.062l.813.113a2.875,2.875,0,0,0-.072,1.805c.225.777.6,1.024.968.917,1.076-.312-.487-3.072,1.366-3.608.805-.233,1.675.21,2.071,1.579a3.284,3.284,0,0,1,.039,1.789l-.8-.084a2.89,2.89,0,0,0-.006-1.489c-.223-.77-.613-1-.991-.887-1.062.307.486,3.065-1.346,3.6-.8.231-1.67-.219-2.066-1.588A3.349,3.349,0,0,1,384.74,236.062Z" transform="translate(-321.67 -211.766)" fill="#fff"></path>
        <path id="Trazado_581" data-name="Trazado 581" d="M392.192,249.213l.137.955-5.143.735-.136-.955Z" transform="translate(-323.138 -219.985)" fill="#fff"></path>
        <path id="Trazado_582" data-name="Trazado 582" d="M392.3,257.978l-.028-1.721.815-.013.071,4.405-.816.013-.028-1.72-4.376.07-.016-.964Z" transform="translate(-323.65 -224.118)" fill="#fff"></path>
        <path id="Trazado_583" data-name="Trazado 583" d="M387.2,272.094l.438-2.561-1.1-.707.168-.98,4.726,3.181-.16.937-5.516,1.435.17-.995Zm.8-.187,2.4-.582-2.074-1.341Z" transform="translate(-322.381 -230.936)" fill="#fff"></path>
        <path id="Trazado_584" data-name="Trazado 584" d="M384.18,283.5l.583.578a2.876,2.876,0,0,0-1.142,1.4c-.286.757-.137,1.178.224,1.315,1.047.4,1.454-2.75,3.258-2.066.784.3,1.214,1.174.709,2.506a3.283,3.283,0,0,1-1.043,1.454l-.593-.55a2.881,2.881,0,0,0,.889-1.194c.284-.749.108-1.165-.259-1.3-1.034-.392-1.452,2.743-3.235,2.067-.777-.294-1.2-1.178-.7-2.511A3.347,3.347,0,0,1,384.18,283.5Z" transform="translate(-320.554 -240.139)" fill="#fff"></path>
        <path id="Trazado_585" data-name="Trazado 585" d="M371.433,303.866l1.559-2.079-.655-1.131.6-.8,2.754,4.988-.57.76-5.564-1.241.605-.808Zm.8.2,2.4.579L373.4,302.5Z" transform="translate(-312.855 -249.753)" fill="#fff"></path>
        <path id="Trazado_586" data-name="Trazado 586" d="M365.177,316.328l-1.241-1.348.709-.653,1.232,1.337,3.788,1.1-.759.7-2.833-.831.584,2.9-.7.643Z" transform="translate(-309.553 -258.255)" fill="#fff"></path>
        <path id="Trazado_587" data-name="Trazado 587" d="M354.973,323.653l1.526,2.5-.823.5-1.506-2.47c-.557-.912-1.207-1.054-1.923-.618s-.882,1.076-.326,1.989l1.506,2.47-.811.495-1.526-2.5a2.275,2.275,0,1,1,3.883-2.368Z" transform="translate(-301.746 -263.02)" fill="#fff"></path>
        <path id="Trazado_588" data-name="Trazado 588" d="M340.571,333.283l-2.15.729a2.607,2.607,0,1,1-1.669-4.918l2.15-.73Zm-3.514-3.43a1.785,1.785,0,1,0,1.144,3.373l1.195-.405-1.144-3.373Z" transform="translate(-292.398 -266.506)" fill="#fff"></path>
        <path id="Trazado_589" data-name="Trazado 589" d="M319.462,334.411l2.58-.3.372-1.252.988-.113-1.732,5.426-.944.108-2.92-4.895,1-.115Zm.4.716,1.231,2.145.708-2.366Z" transform="translate(-282.44 -269.085)" fill="#fff"></path>
        <path id="Trazado_590" data-name="Trazado 590" d="M308.961,337.556c-.021.415.32.715.89.744a1.4,1.4,0,0,0,1.238-.508l.694.5a2.361,2.361,0,0,1-2.055.8c-1.09-.056-1.79-.59-1.746-1.442.063-1.208,1.336-1.254,1.381-2.128l.941.049C310.248,336.672,309,336.816,308.961,337.556Zm1.524-3.168a.59.59,0,1,1-.564-.608A.574.574,0,0,1,310.485,334.388Z" transform="translate(-276.665 -269.689)" fill="#fff"></path>
        <path id="Trazado_591" data-name="Trazado 591" d="M289.47,327.94c-.428,1.108-1.646.758-1.96,1.551l-.879-.339c.385-1,1.616-.745,1.881-1.43.132-.339-.1-.731-.633-.937a1.418,1.418,0,0,0-1.334.1l-.5-.693a2.348,2.348,0,0,1,2.2-.123C289.255,326.456,289.764,327.178,289.47,327.94Zm-2.27,2.7a.595.595,0,1,1-.351-.74A.57.57,0,0,1,287.2,330.644Z" transform="translate(-263.774 -265.032)" fill="#fff"></path>
        <path id="Trazado_592" data-name="Trazado 592" d="M266.849,324.484l2.765-4.4.672.423.553,4.5,1.872-2.979.811.509-2.765,4.4-.672-.423-.553-4.5-1.872,2.978Z" transform="translate(-252.49 -261.64)" fill="#fff"></path>
        <path id="Trazado_593" data-name="Trazado 593" d="M257.6,311.21l.559-.585,2.817,2.691-3.589,3.756-2.742-2.619.559-.585,2.044,1.953.933-.977-1.814-1.733.549-.574,1.813,1.733.99-1.035Z" transform="translate(-245.317 -256.08)" fill="#fff"></path>
        <path id="Trazado_594" data-name="Trazado 594" d="M249.869,304.955a2.811,2.811,0,0,1-4.269-2.907l.839.17a1.823,1.823,0,0,0,.305,1.484,1.826,1.826,0,1,0,2.98-2.11,1.806,1.806,0,0,0-1.3-.777l.124-.852a2.811,2.811,0,0,1,1.325,4.992Z" transform="translate(-239.959 -249.813)" fill="#fff"></path>
        <path id="Trazado_595" data-name="Trazado 595" d="M241.5,287.434l.738-.332,1.6,3.554-4.738,2.131-1.556-3.459.738-.331,1.16,2.579,1.232-.554-1.029-2.288.724-.326,1.029,2.288,1.306-.587Z" transform="translate(-235.263 -242.254)" fill="#fff"></path>
        <path id="Trazado_596" data-name="Trazado 596" d="M239.278,279.251l-.808-.146a2.878,2.878,0,0,0,.147-1.8c-.193-.786-.555-1.048-.93-.956-1.088.267.36,3.091-1.514,3.55-.815.2-1.666-.28-2.005-1.663a3.285,3.285,0,0,1,.035-1.789l.8.117a2.888,2.888,0,0,0-.055,1.488c.191.779.571,1.022.954.928,1.074-.263-.359-3.084,1.494-3.538.807-.2,1.66.288,2,1.672A3.344,3.344,0,0,1,239.278,279.251Z" transform="translate(-233.219 -235.375)" fill="#fff"></path>
        <path id="Trazado_597" data-name="Trazado 597" d="M232.556,270.08l-.1-.96,5.169-.528.1.96Z" transform="translate(-232.276 -231.375)" fill="#fff"></path>
        <path id="Trazado_598" data-name="Trazado 598" d="M232.888,257.025l-.055,1.721-.816-.026.142-4.405.816.026-.055,1.721,4.376.141-.031.964Z" transform="translate(-232.017 -222.983)" fill="#fff"></path>
        <path id="Trazado_599" data-name="Trazado 599" d="M238.027,241.931l-.542,2.541,1.069.752-.207.973-4.594-3.37.2-.929,5.571-1.211-.211.987Zm-.807.155-2.426.484,2.018,1.424Z" transform="translate(-233.037 -214.973)" fill="#fff"></path>
        <path id="Trazado_600" data-name="Trazado 600" d="M241.906,230.951l-.559-.6a2.877,2.877,0,0,0,1.2-1.353c.317-.744.184-1.171-.171-1.322-1.031-.439-1.564,2.688-3.338,1.933-.771-.329-1.165-1.222-.607-2.532a3.279,3.279,0,0,1,1.1-1.41l.57.573a2.888,2.888,0,0,0-.937,1.157c-.314.737-.155,1.16.207,1.313,1.017.433,1.561-2.681,3.315-1.934.764.325,1.155,1.226.6,2.536A3.348,3.348,0,0,1,241.906,230.951Z" transform="translate(-235.632 -206.145)" fill="#fff"></path>
        <path id="Trazado_601" data-name="Trazado 601" d="M254.532,210.235l-1.64,2.013.608,1.156-.628.77-2.549-5.091.6-.736,5.506,1.463-.637.782Zm-.788-.23-2.378-.675,1.145,2.187Z" transform="translate(-242.776 -195.965)" fill="#fff"></path>
        <path id="Trazado_602" data-name="Trazado 602" d="M261.714,198.085l1.186,1.4-.736.624-1.176-1.387-3.741-1.256.787-.667,2.8.946-.465-2.924.725-.614Z" transform="translate(-246.846 -187.653)" fill="#fff"></path>
        <path id="Trazado_603" data-name="Trazado 603" d="M272.132,190.836l-1.421-2.562.843-.467,1.4,2.529c.518.934,1.163,1.1,1.9.7s.925-1.039.406-1.973l-1.4-2.529.83-.461,1.422,2.562a2.274,2.274,0,1,1-3.976,2.206Z" transform="translate(-254.76 -182.871)" fill="#fff"></path>
        <path id="Trazado_604" data-name="Trazado 604" d="M287.016,182.11l2.179-.641a2.608,2.608,0,1,1,1.466,4.984l-2.179.641Zm3.372,3.573a1.786,1.786,0,1,0-1.005-3.418l-1.211.356,1.006,3.418Z" transform="translate(-264.343 -180.079)" fill="#fff"></path>
        <path id="Trazado_605" data-name="Trazado 605" d="M308.167,182.274l-2.589.192-.422,1.236-.991.073,1.947-5.351.947-.07,2.72,5.005-1.006.074Zm-.374-.731-1.144-2.191-.8,2.335Z" transform="translate(-274.422 -178.337)" fill="#fff"></path>
        <path id="Trazado_606" data-name="Trazado 606" d="M321.611,179.9c.038-.414-.291-.727-.86-.78a1.4,1.4,0,0,0-1.257.458l-.674-.532a2.362,2.362,0,0,1,2.086-.717c1.087.1,1.765.662,1.687,1.512-.111,1.2-1.385,1.2-1.465,2.072l-.939-.087C320.29,180.73,321.543,180.637,321.611,179.9ZM319.962,183a.59.59,0,1,1,.538.631A.574.574,0,0,1,319.962,183Z" transform="translate(-283.036 -178.312)" fill="#fff"></path>
      </g>
    </g>
  </g>
</svg>
