<svg xmlns="http://www.w3.org/2000/svg" width="35.167" height="49.18" viewBox="0 0 35.167 49.18">
  <g id="icono-localizacion" transform="translate(-82.648 -18.033)" opacity="0.8">
    <g id="Grupo_8302" data-name="Grupo 8302" transform="translate(84.547 18.033)">
      <path id="Trazado_98" data-name="Trazado 98" d="M115.374,18.081a15.661,15.661,0,0,1,14.185,6.3A18.656,18.656,0,0,1,131.9,39.841a14.775,14.775,0,0,1-1.424,3.355Q123.81,52.966,117,62.617q-6.721-9.526-13.371-19.116A18.676,18.676,0,0,1,101.9,29.876Q104.881,19.68,115.374,18.081Zm.2,1.729A14.123,14.123,0,0,1,128.135,25.4a16.729,16.729,0,0,1,2.135,13.727,14.775,14.775,0,0,1-1.424,3.355Q122.961,51.052,117,59.567q-6.151-8.742-12.151-17.591a16.6,16.6,0,0,1,.407-15.659A14.144,14.144,0,0,1,115.577,19.809Z" transform="translate(-101.324 -18.033)" fill="#042946" fill-rule="evenodd" opacity="0.929"/>
    </g>
    <g id="Grupo_8303" data-name="Grupo 8303" transform="translate(94.648 27.794)">
      <path id="Trazado_99" data-name="Trazado 99" d="M205.425,114.076a5.919,5.919,0,0,1,5.948,2.745,5.783,5.783,0,0,1-8.185,7.779,5.808,5.808,0,0,1,2.237-10.524Zm.2,1.729a4.233,4.233,0,0,0-3.254,3.966,4.012,4.012,0,0,0,7.88,1.118Q210.8,115.766,205.628,115.8Z" transform="translate(-200.663 -114.027)" fill="#042946" fill-rule="evenodd" opacity="0.93"/>
    </g>
    <g id="Grupo_8304" data-name="Grupo 8304" transform="translate(82.648 60.36)">
      <path id="Trazado_100" data-name="Trazado 100" d="M83.039,434.318a2.124,2.124,0,0,1,1.017.153,13.265,13.265,0,0,1,.559,1.373,8.94,8.94,0,0,0,3,1.779,36.424,36.424,0,0,0,10.168,1.729,49.361,49.361,0,0,0,12.2-.915,16.82,16.82,0,0,0,4.779-1.729,4.131,4.131,0,0,0,1.068-.864l.508-1.322q1.278-.682,1.474.712a3.382,3.382,0,0,1-1.424,2.491,13.628,13.628,0,0,1-4.169,1.932,47.485,47.485,0,0,1-14.439,1.424,35.012,35.012,0,0,1-11.8-2.237,7.15,7.15,0,0,1-3-2.288A1.891,1.891,0,0,1,83.039,434.318Z" transform="translate(-82.648 -434.297)" fill="#042946" fill-rule="evenodd" opacity="0.933"/>
    </g>
  </g>
</svg>
