<svg xmlns="http://www.w3.org/2000/svg" width="39.386" height="39.377" viewBox="0 0 39.386 39.377">
  <g id="icon-telefono" transform="translate(-6.949 -7.5)" opacity="0.8">
    <g id="Grupo_8306" data-name="Grupo 8306" transform="translate(30.033 7.5)">
      <path id="Trazado_101" data-name="Trazado 101" d="M298.136,7.5a15.448,15.448,0,0,1,13.454,7.065,15.2,15.2,0,0,1,2.461,8.97q-.6.794-1.191,0a14.826,14.826,0,0,0-7.422-12.9,17.049,17.049,0,0,0-7.461-1.984A.72.72,0,0,1,298.136,7.5Z" transform="translate(-297.76 -7.5)" fill="#042946" fill-rule="evenodd" opacity="0.928"/>
    </g>
    <g id="Grupo_8307" data-name="Grupo 8307" transform="translate(6.949 10.437)">
      <path id="Trazado_102" data-name="Trazado 102" d="M14.3,44.5q1.03.131.675,1.111a8.985,8.985,0,0,0-1.707.833A20.073,20.073,0,0,0,9.176,52.2a9.419,9.419,0,0,0,1.588,10.319q2.092,2.478,4.128,5A65.289,65.289,0,0,0,25.964,77.4q8.354,5.012,15.717-1.349A2.65,2.65,0,0,0,41.84,72q-2.986-1.754-6.033-3.413a1.415,1.415,0,0,0-1.111,0q-2.124,1.28-4.207,2.619a4.038,4.038,0,0,1-3.572-.159,45.187,45.187,0,0,1-6.39-5.517,44.287,44.287,0,0,1-3.334-4.366,4.372,4.372,0,0,1,.318-4.048,42.884,42.884,0,0,0,2.7-3.493,1.6,1.6,0,0,0-.159-1.429,49.385,49.385,0,0,1-2.421-4.326q.4-1.109,1.31-.357,1.091,2.023,2.3,3.969a3.1,3.1,0,0,1,.079,3.016q-1.264,1.7-2.619,3.334a2.7,2.7,0,0,0,0,3.175,32.6,32.6,0,0,0,9.247,9.009,2.2,2.2,0,0,0,1.826,0q2.044-1.24,4.048-2.54a3.257,3.257,0,0,1,2.54-.159l6.191,3.493a4.074,4.074,0,0,1,.913,5.279,14.566,14.566,0,0,1-9.168,4.8,14.086,14.086,0,0,1-8.335-1.905,36.027,36.027,0,0,1-3.254-2.223A68.788,68.788,0,0,1,14.1,68.71L9.573,63.233A10.751,10.751,0,0,1,7.985,51.565a21.8,21.8,0,0,1,4.564-6.311A5.092,5.092,0,0,1,14.3,44.5Z" transform="translate(-6.949 -44.5)" fill="#042946" fill-rule="evenodd" opacity="0.927"/>
    </g>
    <g id="Grupo_8308" data-name="Grupo 8308" transform="translate(15.824 11.231)">
      <path id="Trazado_103" data-name="Trazado 103" d="M119.368,54.5a.741.741,0,0,1,.675,1.032.783.783,0,0,1-1.191.079A.725.725,0,0,1,119.368,54.5Z" transform="translate(-118.753 -54.5)" fill="#042946" fill-rule="evenodd" opacity="0.869"/>
    </g>
    <g id="Grupo_8309" data-name="Grupo 8309" transform="translate(30.024 15.279)">
      <path id="Trazado_104" data-name="Trazado 104" d="M298.029,105.5a7.845,7.845,0,0,1,7.66,4.921q0,1.114-1.072.754a7.03,7.03,0,0,0-6.668-4.445A.722.722,0,0,1,298.029,105.5Z" transform="translate(-297.643 -105.5)" fill="#042946" fill-rule="evenodd" opacity="0.921"/>
    </g>
    <g id="Grupo_8310" data-name="Grupo 8310" transform="translate(36.998 21.788)">
      <path id="Trazado_105" data-name="Trazado 105" d="M385.9,187.5q1.445-.005.714,1.23a.728.728,0,0,1-1.111-.6A1.008,1.008,0,0,1,385.9,187.5Z" transform="translate(-385.5 -187.5)" fill="#042946" fill-rule="evenodd" opacity="0.87"/>
    </g>
  </g>
</svg>
