<svg xmlns="http://www.w3.org/2000/svg" width="21.411" height="21.411" viewBox="0 0 21.411 21.411">
  <g id="icon-close" transform="translate(-1223.937 -67)">
    <path id="Trazado_15" data-name="Trazado 15" d="M.673,0H27.916a.774.774,0,0,1,.673.846.774.774,0,0,1-.673.846H.673A.774.774,0,0,1,0,.846.774.774,0,0,1,.673,0Z" transform="translate(1223.937 87.215) rotate(-45)" fill="#fff"/>
    <path id="Trazado_90" data-name="Trazado 90" d="M.673,1.691H27.916a.774.774,0,0,0,.673-.846A.774.774,0,0,0,27.916,0H.673A.774.774,0,0,0,0,.846.774.774,0,0,0,.673,1.691Z" transform="translate(1244.152 88.411) rotate(-135)" fill="#fff"/>
  </g>
</svg>
