<svg xmlns="http://www.w3.org/2000/svg" width="38.351" height="13.495" viewBox="0 0 38.351 13.495">
  <g id="icono-mobile-menu" transform="translate(-1215.156 -48)">
    <path id="Trazado_17" data-name="Trazado 17" d="M.755,0H37.6a.868.868,0,0,1,.755.948A.868.868,0,0,1,37.6,1.9H.755A.868.868,0,0,1,0,.948.868.868,0,0,1,.755,0Z" transform="translate(1215.156 48)" fill="#042946"/>
    <path id="Trazado_16" data-name="Trazado 16" d="M.755,0H20.641A.868.868,0,0,1,21.4.948a.868.868,0,0,1-.755.948H.755A.868.868,0,0,1,0,.948.868.868,0,0,1,.755,0Z" transform="translate(1232.112 53.465)" fill="#042946"/>
    <path id="Trazado_15" data-name="Trazado 15" d="M.755,0H31.294a.868.868,0,0,1,.755.948.868.868,0,0,1-.755.948H.755A.868.868,0,0,1,0,.948.868.868,0,0,1,.755,0Z" transform="translate(1221.459 59.599)" fill="#042946"/>
  </g>
</svg>
