<svg xmlns="http://www.w3.org/2000/svg" width="39.386" height="35.638" viewBox="0 0 39.386 35.638">
  <g id="icono-correo" transform="translate(-60.438 -78.5)" opacity="0.8">
    <path id="Trazado_106" data-name="Trazado 106" d="M80.433,78.5q2.329,1.494,4.543,3.18,3.987.076,7.976.05-.025,3.281.05,6.562,3.425,2.567,6.764,5.25.076,10.3.05,20.6H60.444q-.025-10.247.05-20.494L66.956,89q.076-3.634.05-7.269,4.442.025,8.884-.05Q78.189,80.111,80.433,78.5Zm0,1.615q1.152.779,2.322,1.565-2.272.1-4.543,0Q79.359,80.932,80.433,80.115ZM68.318,83.043H91.64q.05,6.916-.1,13.831-6.076,3-12.165,5.957l-11-5.755Q68.293,90.06,68.318,83.043Zm24.634,6.865Q95.445,91.819,97.9,93.8q-2.46,1.167-4.9,2.373Q92.927,93.038,92.952,89.908ZM66.8,90.716a19.271,19.271,0,0,1,.2,2.827q-.025,1.413-.05,2.827-2.258-1.192-4.493-2.423Q64.636,92.328,66.8,90.716Zm31.6,4.24q.151,8.909.1,17.87H61.756q-.05-8.834.1-17.668,8.731,4.605,17.516,9.086Q88.947,99.7,98.4,94.956Z" transform="translate(0 0)" fill="#042946" fill-rule="evenodd" opacity="0.933"/>
  </g>
</svg>
