<?xml version="1.0" encoding="UTF-8"?>
<svg xmlns="http://www.w3.org/2000/svg" width="227.908" height="103.337" viewBox="0 0 227.908 103.337">
  <g id="logo-porque-haccenext" transform="translate(-1630.51 -280.187)">
    <path id="Trazado_1" data-name="Trazado 1" d="M1987,280.253a53.94,53.94,0,0,1,12.825,2.1c14.295,4.609,22.8,14.613,26.061,28.986a39.236,39.236,0,0,1-4.477,29.394c-6.3,10.7-15.689,16.83-27.96,18.637a90.085,90.085,0,0,1-13.4.656,2.09,2.09,0,0,1-.5-.129q0-21.341.007-42.682,0-17.873-.022-35.746c0-.961.183-1.324,1.216-1.279C1982.828,280.282,1984.917,280.24,1987,280.253Zm35,34.519a4.292,4.292,0,0,0-.27-2.161,1.9,1.9,0,0,0,0-.4,34.465,34.465,0,0,0-13.293-20.856c-7.058-5.259-15.292-6.752-23.9-6.777-.874,0-.76.472-.76,1.01q0,34.606-.018,69.212c0,.944.335,1.115,1.146,1.043,2.079-.184,4.168-.264,6.241-.494,9.741-1.083,17.938-5.045,23.96-12.994a32.5,32.5,0,0,0,6.307-13.186,35.2,35.2,0,0,0,.989-12.426,3.326,3.326,0,0,0-.411-1.987Z" transform="translate(-255.879)" fill="#042946"></path>
    <path id="Trazado_2" data-name="Trazado 2" d="M1630.535,323.432a15.2,15.2,0,0,1,3.033-.153c.725-.058.842.556,1.093.988q6.073,10.476,12.127,20.963,7.779,13.477,15.549,26.959a2.223,2.223,0,0,0,.879.9v-1.5c0-15.648.037-31.3-.033-46.945-.007-1.537.716-1.371,1.686-1.364.949.007,1.706-.179,1.7,1.344q-.095,27.14-.017,54.281c0,1.035-.243,1.316-1.308,1.363a2.856,2.856,0,0,1-2.993-1.7q-13.34-23.257-26.816-46.437c-.152-.263-.354-.5-.532-.743l-.919-1.782-.231.084v1.423q0,23.264,0,46.529c0,2.486,0,2.486-2.383,2.64-.342-.1-.859.063-.86-.562.013-.132.038-.265.038-.4Q1630.543,351.376,1630.535,323.432Z" transform="translate(0 -31.583)" fill="#042946"></path>
    <path id="Trazado_3" data-name="Trazado 3" d="M2257.819,367.779l3.159,9.126c-3.345.214-3.336.211-4.431-2.8q-8.067-22.205-16.153-44.4c-.131-.359-.135-.808-.639-1.1-.992,2.708-1.982,5.4-2.962,8.088q-7.181,19.721-14.34,39.45c-.217.6-.451.884-1.107.846-.839-.048-1.683-.011-2.687-.011,1.214-3.361,2.376-6.6,3.554-9.837q8.7-23.9,17.4-47.789c.06-.165.1-.34.142-.51l.464.519.022.05a1.394,1.394,0,0,0,.025.4q7.225,19.84,14.459,39.677l-.016.082.067.05Z" transform="translate(-431.192 -28.331)" fill="#042946"></path>
    <path id="Trazado_4" data-name="Trazado 4" d="M1867.694,380.123c-.562-.328-.32-.871-.32-1.322q-.01-27.188-.022-54.376c0-1.011.153-1.487,1.282-1.314a9.469,9.469,0,0,0,1.852-.068c.041.528.12,1.057.12,1.585q.006,26.215,0,52.43c0,2.885,0,2.885-2.778,3.039A.934.934,0,0,0,1867.694,380.123Z" transform="translate(-173.615 -31.419)" fill="#042946"></path>
    <path id="Trazado_5" data-name="Trazado 5" d="M2281.431,620.885V609.553a9.639,9.639,0,0,1,.008-1.066c.037-.339-.252-.9.44-.887s.408.586.409.91q.03,6.937.007,13.874c0,.362.181.877-.417.962-.489.069-.673-.35-.873-.7q-3.361-5.818-6.719-11.637c-.208-.361-.437-.71-.87-1.409-.048.848-.1,1.307-.1,1.766,0,3.646.01,7.293-.01,10.939,0,.367.3,1.01-.455,1.008s-.438-.653-.44-1.01q-.035-6.737,0-13.473c0-.4-.353-1.019.342-1.221s.9.356,1.169.822q3.284,5.708,6.587,11.4A1.829,1.829,0,0,0,2281.431,620.885Z" transform="translate(-470.539 -240.016)" fill="#042946"></path>
    <path id="Trazado_6" data-name="Trazado 6" d="M2369.383,614.317a7.57,7.57,0,0,1,4.5-6.914,7.734,7.734,0,0,1,8.195.667c.273.189,1,.307.5.945-.45.584-.766.046-1.1-.177a7.094,7.094,0,1,0,0,11.667c.287-.195.552-.873,1.049-.239.558.713-.247.828-.543,1.028a7.684,7.684,0,0,1-8.3.5C2370.9,620.33,2369.4,617.914,2369.383,614.317Z" transform="translate(-541.694 -239.255)" fill="#042946"></path>
    <path id="Trazado_7" data-name="Trazado 7" d="M2124.874,620.741a8.015,8.015,0,0,1-10.767.041,8.12,8.12,0,0,1-.918-11.065,8.033,8.033,0,0,1,10.774-1.651c.336.231,1.09.361.708,1-.407.682-.808.07-1.181-.176a7.094,7.094,0,1,0,.056,11.714C2124.229,620.151,2124.229,620.151,2124.874,620.741Z" transform="translate(-352.578 -239.367)" fill="#042946"></path>
    <path id="Trazado_8" data-name="Trazado 8" d="M2446.649,605.808c1.92,5.269,3.74,10.237,5.522,15.217.1.285.626.745.033.991-.628.26-.8-.306-.973-.772-.525-1.454-1.088-2.9-1.565-4.366-.209-.646-.489-.94-1.21-.9-1.455.077-3.179-.406-4.3.223-1.075.606-1.121,2.481-1.617,3.8-.218.579-.458,1.149-.675,1.728-.15.4-.481.35-.777.3-.461-.076-.22-.367-.138-.591C2442.809,616.339,2444.668,611.242,2446.649,605.808Zm0,2.871c-.437,1.177-.807,2.06-1.093,2.969-.353,1.12-1.47,2.507-.89,3.254.463.6,2.233.138,3.417.225.831.061.875-.239.619-.9C2448.041,612.494,2447.417,610.75,2446.653,608.679Z" transform="translate(-594.064 -238.724)" fill="#042946"></path>
    <path id="Trazado_9" data-name="Trazado 9" d="M2194.7,622.289c-.119.315.286.937-.37.922-2.267-.052-4.549.321-6.8-.2q0-7.593-.008-15.186l.117-.332c.893-.2.982.274.976,1.025-.032,4.173.015,8.346-.038,12.519-.012.947.145,1.312,1.2,1.247C2191.415,622.179,2193.062,622.276,2194.7,622.289Z" transform="translate(-408.367 -239.924)" fill="#042946"></path>
    <path id="Trazado_10" data-name="Trazado 10" d="M2240.453,615.589c0-2.352-.011-4.7.009-7.054,0-.328-.253-.877.461-.852.68.023.441.536.442.882q.016,6.921,0,13.842c0,.368.288,1.013-.47.991s-.421-.662-.426-1.022C2240.439,620.114,2240.454,617.851,2240.453,615.589Z" transform="translate(-447.134 -240.098)" fill="#042946"></path>
    <path id="Trazado_11" data-name="Trazado 11" d="M2339.236,615.6c0,2.261.013,4.522-.012,6.783,0,.38.263,1.027-.448,1.028-.607,0-.4-.588-.4-.936q-.021-6.982,0-13.965c0-.308-.182-.781.384-.812.689-.038.466.519.469.854C2339.244,610.9,2339.235,613.25,2339.236,615.6Z" transform="translate(-518.936 -240.108)" fill="#042946"></path>
    <path id="Trazado_12" data-name="Trazado 12" d="M2238.225,594.663c1.523-1.992,1.523-1.992,3.138-1.748C2240.3,593.484,2239.724,594.69,2238.225,594.663Z" transform="translate(-445.537 -229.191)" fill="#042946"></path>
  </g>
</svg>
