<?xml version="1.0" encoding="UTF-8"?>
<svg xmlns="http://www.w3.org/2000/svg" width="229.901" height="229.901" viewBox="0 0 229.901 229.901">
  <g id="pruebas-medicas-2" transform="translate(0.5 0.5)" opacity="0.35">
    <g id="Grupo_8403" data-name="Grupo 8403" transform="translate(-0.5 -0.5)">
      <path id="Trazado_144" data-name="Trazado 144" d="M26.442-.5H31.83a14.509,14.509,0,0,1,9.205,9.879q.449,11.9,0,23.8Q36.973,45.03,24.645,42.831q-11.32-4.555-9.654-16.838a12.383,12.383,0,0,0-6.735,6.735q-1.114,36.556-.449,73.191,3.076,15.873,17.737,22.676a31.329,31.329,0,0,0,7.633,2.021q1.12-9.315,10.328-11,20.88-.449,41.759,0,9.207,1.687,10.328,11,16.737-2.818,23.574-18.41a37.6,37.6,0,0,0,1.8-6.286q.449-35.922,0-71.844-2.98-9.257-12.8-9.205a5.177,5.177,0,0,1-2.021-1.572,100.338,100.338,0,0,1-.9-12.573q-2.539-4.657-7.409-2.47a8.012,8.012,0,0,0-2.021,2.47q-.449,10.552,0,21.1a8.012,8.012,0,0,0,2.021,2.47,21.358,21.358,0,0,1,6.062,2.47q2.25,5.379-3.368,6.735-9.919-.828-12.8-10.328-.449-11.9,0-23.8A14.509,14.509,0,0,1,96.939-.5h7.184q11.749,5.08,9.43,17.961,14.63,3.745,15.94,18.859.633,35.484-.449,70.946Q124.269,130,102.327,137.576q-3.382.744-6.735,1.572a12.193,12.193,0,0,1-8.981,10.1,81.907,81.907,0,0,1-12.124,0,4.458,4.458,0,0,1-2.021-5.613,8.011,8.011,0,0,1,2.47-2.021l10.328-.449a4.156,4.156,0,0,0,2.021-2.47,27.318,27.318,0,0,0-.449-9.43,3.447,3.447,0,0,0-2.47-1.572q-19.982-.449-39.963,0a3.447,3.447,0,0,0-2.47,1.572,27.318,27.318,0,0,0-.449,9.43,4.155,4.155,0,0,0,2.021,2.47l10.777.449a13.255,13.255,0,0,1,2.021,1.123,123.117,123.117,0,0,1,.9,14.369,4.146,4.146,0,0,0,2.47,3.368l6.286.449a4.146,4.146,0,0,1,2.47,3.368q.049,13.72.9,27.391,8.036,27.9,37.045,29.636,29.269-1.762,37.045-30.085a50.835,50.835,0,0,0,.9-6.286q.224-81.274.449-162.547Q149.036,3.869,167.436-.5h9.879q17.173,4.061,22.227,21.1.776,51.84,1.123,103.725a17.02,17.02,0,0,1,11.9,13.022,137.558,137.558,0,0,1,0,15.716,4.125,4.125,0,0,1-5.164,2.47q-18.244-7.353-31.207,7.409-10.543,16.016.9,31.432,12.207,12.9,28.962,6.96,16.919-8.575,15.042-27.615a48.094,48.094,0,0,0-2.021-6.96q.983-5.567,6.286-3.592l1.572,1.572q1.46,4.062,2.47,8.082V183.6q-7.276,28.476-36.82,27.615-27.464-5.126-29.636-33,1.953-26.984,28.289-33a43.666,43.666,0,0,1,13.022.674,20.247,20.247,0,0,0-.225-8.981,9.152,9.152,0,0,0-7.633-4.939,36.428,36.428,0,0,1-6.96,1.123q-4.484-2.871-1.347-7.184a19.145,19.145,0,0,1,3.592-1.572q.224-25.033.449-50.066.1-26.181-.674-52.312-6.634-17.3-24.921-13.7a20.1,20.1,0,0,0-13.7,15.491q-.224,81.049-.449,162.1-2.7,28.059-28.064,40.188a73.327,73.327,0,0,1-11.675,3.368H100.082q-32.688-6.308-39.29-39.065-.825-10.76-.674-21.553-9.6-1.183-11-10.777a81.216,81.216,0,0,1-.225-8.531q-12.76,2.029-15.716-10.328Q5.725,133.92-.5,106.817V32.728Q4.7,16.1,21.951,18.135a13.248,13.248,0,0,1,1.123,2.021,95.384,95.384,0,0,0,.9,12.573q4.266,4.49,8.531,0a138.014,138.014,0,0,0,.449-22,7.383,7.383,0,0,0-6.96-3.817Q22.257,2.889,26.442-.5Z" transform="translate(0.5 0.5)" fill="#042946" fill-rule="evenodd" opacity="0.937"></path>
    </g>
    <g id="Grupo_8404" data-name="Grupo 8404" transform="translate(181.07 162.496)">
      <path id="Trazado_145" data-name="Trazado 145" d="M418.07,362.5q17.106,1.278,16.389,18.41-4.156,14.376-19.084,12.348-12.347-3.929-11.45-16.839a3.989,3.989,0,0,1,5.164-2.021,5.178,5.178,0,0,1,2.021,1.572,9.552,9.552,0,0,0,5.613,9.205q8.353,1.327,9.879-6.96-1.286-7.9-9.43-7.858Q412.461,365.761,418.07,362.5Z" transform="translate(-403.865 -362.5)" fill="#042946" fill-rule="evenodd" opacity="0.927"></path>
    </g>
  </g>
</svg>
